<svg xmlns="http://www.w3.org/2000/svg" viewBox="0 0 1600 900" preserveAspectRatio="xMidYMid slice">
<defs>
<linearGradient id="g" x1="0" y1="0" x2="1" y2="1">
<stop offset="0" stop-color="#1a1140"/><stop offset="0.5" stop-color="#3b1561"/><stop offset="1" stop-color="#0c2a4d"/>
</linearGradient>
<radialGradient id="glow1" cx="0.2" cy="0.1" r="0.6"><stop offset="0" stop-color="#7c3aed" stop-opacity="0.8"/><stop offset="1" stop-color="#7c3aed" stop-opacity="0"/></radialGradient>
<radialGradient id="glow2" cx="0.9" cy="0.2" r="0.6"><stop offset="0" stop-color="#06b6d4" stop-opacity="0.7"/><stop offset="1" stop-color="#06b6d4" stop-opacity="0"/></radialGradient>
<radialGradient id="glow3" cx="0.6" cy="1" r="0.7"><stop offset="0" stop-color="#ec4899" stop-opacity="0.6"/><stop offset="1" stop-color="#ec4899" stop-opacity="0"/></radialGradient>
</defs>
<rect width="1600" height="900" fill="url(#g)"/>
<rect width="1600" height="900" fill="url(#glow1)"/>
<rect width="1600" height="900" fill="url(#glow2)"/>
<rect width="1600" height="900" fill="url(#glow3)"/>
<g opacity="0.5" fill="#ffffff">
<circle cx="180" cy="220" r="6"/><circle cx="320" cy="120" r="3"/><circle cx="520" cy="260" r="4"/><circle cx="900" cy="140" r="5"/><circle cx="1180" cy="240" r="3"/><circle cx="1360" cy="160" r="6"/><circle cx="1450" cy="380" r="4"/><circle cx="120" cy="520" r="4"/><circle cx="760" cy="80" r="3"/><circle cx="1040" cy="60" r="4"/>
</g>
<g opacity="0.18" fill="#22d3ee">
<circle cx="260" cy="640" r="120"/><circle cx="1320" cy="700" r="160"/><circle cx="820" cy="820" r="100"/>
</g>
<!-- frosty slush glass -->
<g transform="translate(700,470)" opacity="0.92">
<path d="M40 0 L260 0 L232 360 Q150 392 68 360 Z" fill="#9be8ff" opacity="0.22"/>
<path d="M40 0 L260 0 L250 130 L50 130 Z" fill="#ff5ea8" opacity="0.55"/>
<path d="M50 130 L250 130 L240 250 L60 250 Z" fill="#ffb347" opacity="0.55"/>
<path d="M60 250 L240 250 L232 360 Q150 392 68 360 Z" fill="#7c3aed" opacity="0.55"/>
<rect x="150" y="-90" width="14" height="150" rx="7" fill="#ff3b6b" transform="rotate(12 157 -15)"/>
</g>
</svg>
