<svg xmlns="http://www.w3.org/2000/svg" viewBox="0 0 1600 900" preserveAspectRatio="xMidYMid slice">
<defs>
<linearGradient id="kg" x1="0" y1="0" x2="1" y2="1"><stop offset="0" stop-color="#ff7eb3"/><stop offset="0.4" stop-color="#a78bfa"/><stop offset="0.7" stop-color="#38bdf8"/><stop offset="1" stop-color="#34d399"/></linearGradient>
</defs>
<rect width="1600" height="900" fill="url(#kg)"/>
<g opacity="0.92">
<!-- popsicles -->
<g transform="rotate(-15 300 300)"><rect x="250" y="180" width="100" height="150" rx="48" fill="#ff4d6d"/><rect x="288" y="320" width="24" height="90" rx="10" fill="#c98a3a"/></g>
<g transform="rotate(12 1280 260)"><rect x="1230" y="150" width="96" height="150" rx="46" fill="#ffd23f"/><rect x="1266" y="290" width="24" height="90" rx="10" fill="#c98a3a"/></g>
<!-- stars -->
<g fill="#fff8b0">
<path d="M760 120 l22 52 56 5 -43 37 13 55 -48-30 -48 30 13-55 -43-37 56-5z"/>
<path d="M180 640 l16 38 41 4 -31 27 9 40 -35-22 -35 22 9-40 -31-27 41-4z"/>
<path d="M1400 620 l18 42 46 4 -35 30 10 45 -39-25 -39 25 10-45 -35-30 46-4z"/>
</g>
<!-- bubbles -->
<g fill="#ffffff" opacity="0.4"><circle cx="560" cy="700" r="70"/><circle cx="980" cy="760" r="50"/><circle cx="1120" cy="640" r="36"/><circle cx="420" cy="430" r="28"/></g>
</g>
</svg>
